<?xml version="1.0" encoding="UTF-8" standalone="no"?>
<svg
   version="1.0"
   width="657.83752pt"
   height="504.10001pt"
   viewBox="0 0 657.83752 504.09999"
   preserveAspectRatio="xMidYMid"
   id="svg30"
   sodipodi:docname="reicotLogoGPT.svg"
   inkscape:version="1.4.2 (f4327f4, 2025-05-13)"
   xmlns:inkscape="http://www.inkscape.org/namespaces/inkscape"
   xmlns:sodipodi="http://sodipodi.sourceforge.net/DTD/sodipodi-0.dtd"
   xmlns="http://www.w3.org/2000/svg"
   xmlns:svg="http://www.w3.org/2000/svg">
  <defs
     id="defs30" />
  <sodipodi:namedview
     id="namedview30"
     pagecolor="#505050"
     bordercolor="#eeeeee"
     borderopacity="1"
     inkscape:showpageshadow="0"
     inkscape:pageopacity="0"
     inkscape:pagecheckerboard="0"
     inkscape:deskcolor="#505050"
     inkscape:document-units="pt"
     inkscape:zoom="0.72795435"
     inkscape:cx="585.88839"
     inkscape:cy="265.81337"
     inkscape:window-width="1920"
     inkscape:window-height="991"
     inkscape:window-x="-9"
     inkscape:window-y="-9"
     inkscape:window-maximized="1"
     inkscape:current-layer="g30" />
  <metadata
     id="metadata1">
Created by potrace 1.12, written by Peter Selinger 2001-2015
</metadata>
  <g
     transform="matrix(0.1,0,0,-0.1,-301.1625,895)"
     fill="#000000"
     stroke="none"
     id="g30">
    <path
       d="m 5420,8946 c 0,-3 362,-621 688,-1173 92,-156 170,-283 174,-283 3,0 21,26 39,58 18,31 102,174 187,317 204,343 632,1075 632,1081 0,2 -387,4 -860,4 -473,0 -860,-2 -860,-4 z"
       id="path1" />
    <path
       d="m 3632,7209 3,-772 110,2 c 60,1 111,3 112,5 1,1 3,121 5,266 l 3,265 221,3 221,2 61,-97 c 34,-54 110,-174 170,-268 l 109,-170 137,-3 137,-3 -12,23 c -7,12 -86,137 -176,277 l -164,255 72,34 c 345,164 377,666 55,874 -118,76 -131,78 -627,78 h -439 z m 903,516 c 93,-46 145,-136 145,-249 -1,-102 -54,-190 -145,-239 -39,-21 -51,-22 -355,-22 h -315 l -3,254 c -2,139 -1,260 2,268 5,12 56,13 318,11 287,-3 316,-5 353,-23 z"
       id="path2" />
    <path
       d="m 7970,7959 c -213,-55 -385,-198 -485,-404 -61,-126 -78,-215 -73,-373 7,-191 59,-330 177,-478 90,-113 260,-215 415,-249 117,-26 303,-17 411,19 253,86 440,292 501,553 23,101 21,298 -4,394 -70,264 -276,470 -536,538 -108,28 -298,28 -406,0 z m 344,-225 c 392,-101 526,-612 236,-905 -278,-282 -746,-175 -876,200 -102,295 60,619 351,702 77,22 209,24 289,3 z"
       id="path3" />
    <path
       d="m 6172,6948 c -60,-101 -243,-410 -407,-688 -164,-278 -306,-519 -316,-536 -11,-17 -19,-34 -19,-38 0,-3 385,-6 856,-6 h 856 l -20,33 c -11,17 -203,343 -427,722 -225,380 -409,691 -411,693 -1,2 -51,-79 -112,-180 z"
       id="path4" />
    <path
       d="m 3015,4648 c -3,-7 -4,-175 -3,-373 l 3,-360 48,-3 47,-3 v 135 136 h 118 l 117,-1 87,-134 87,-135 h 61 c 46,0 59,3 54,13 -5,6 -45,69 -90,138 l -82,127 39,18 c 146,65 180,276 62,385 -65,61 -79,64 -321,67 -177,3 -223,1 -227,-10 z m 444,-106 c 68,-37 91,-129 48,-193 -40,-61 -72,-70 -242,-67 l -150,3 -3,138 -3,137 h 158 c 134,0 164,-3 192,-18 z"
       id="path5" />
    <path
       d="m 4330,4285 v -375 l 273,2 272,3 3,48 3,47 h -225 -226 v 115 115 h 195 195 v 45 45 h -195 -195 v 115 115 h 226 225 l -3,48 -3,47 -272,3 -273,2 z"
       id="path6" />
    <path
       d="m 5575,4648 c -3,-7 -4,-175 -3,-373 l 3,-360 46,-3 46,-3 5,98 c 3,54 5,222 4,373 l -1,275 -48,3 c -32,2 -49,-1 -52,-10 z"
       id="path7" />
    <path
       d="m 6629,4646 c -106,-28 -201,-113 -240,-215 -17,-42 -22,-78 -23,-147 -1,-86 2,-95 37,-167 60,-122 160,-191 294,-203 118,-11 241,39 311,125 l 32,40 -33,25 c -19,15 -38,26 -43,26 -6,0 -26,-16 -45,-36 -96,-100 -255,-111 -361,-24 -45,37 -85,117 -94,186 -13,107 45,222 138,271 44,23 66,28 128,28 88,0 122,-15 190,-81 l 46,-44 37,25 c 20,14 37,28 37,31 0,17 -66,86 -108,112 -90,58 -202,75 -303,48 z"
       id="path8" />
    <path
       d="m 7968,4645 c -187,-51 -297,-238 -259,-437 58,-297 423,-399 628,-175 66,73 94,144 94,242 1,76 -12,139 -39,190 -76,148 -259,226 -424,180 z m 185,-101 c 191,-65 243,-329 90,-464 -148,-130 -372,-65 -428,124 -19,63 -19,100 0,163 23,78 67,130 138,164 71,33 129,37 200,13 z"
       id="path9" />
    <path
       d="m 8990,4610 v -49 l 123,-3 122,-3 3,-323 2,-323 48,3 47,3 3,323 2,322 h 125 125 v 50 50 h -300 -300 z"
       id="path10" />
  </g>
</svg>
